<svg id="fac30fb8-e8a0-40c7-abed-a841e15222db" data-name="Layer 1" xmlns="http://www.w3.org/2000/svg" viewBox="0 0 246.82 136.12"><title>logo_icon</title><path d="M133.69,99V94.58q0-29.73,0-59.46a33.44,33.44,0,0,0-.2-4.59c-1-6.87-2.17-8-9-8.87-3.25-.4-3.4-.59-3.16-4.11h38.52c.86,2.47,0,3.77-2.58,4.05-7.22.8-9,1.26-9.87,10.84-.52,5.62-.23,11.32-.23,17,0,18.64.28,37.28-.18,55.91-.14,5.64,2.14,8.9,6.17,11.83,7.08,5.14,14,10.55,21.26,15.41a94.78,94.78,0,0,0,13.78,7.27c9.54,4.31,19.36,8.17,29.68,9.73,9.37,1.42,19,1.37,28.45,2,.85.05,1.7.13,2.55.2l-.07,1.26c-8.09-.48-16.19-.85-24.27-1.48a121.94,121.94,0,0,1-16.44-2c-11-2.39-21.69-5.67-31.69-10.95-7.24-3.83-14.7-7.31-21.66-11.59a180.66,180.66,0,0,1-18.51-13.36,185.19,185.19,0,0,1-17-15.24c-8.91-9.22-17.41-18.85-26-28.38-3.72-4.12-7.27-8.41-11.57-13.4,0,1.93,0,2.91,0,3.89.12,16.27.06,32.55.44,48.82.16,6.64,1.23,7.26,7.62,8.78.86.21,1.45,1.55,2.82,3.12H62c-.86-2.13-.36-3,2-3.29,5.08-.6,6.47-2,6.9-7.17.35-4.22.34-8.48.35-12.72,0-15.34-.42-30.69.22-46,.27-6.59-2.72-9.93-7.62-12.6C55.92,35.16,48.2,30.38,39.92,27c-10.07-4.1-20.78-5.73-31.68-3.15a24.85,24.85,0,0,0-2.77,1.31,30.86,30.86,0,0,1-3,.81L2,25.14c2.68-1.63,5.21-3.65,8.08-4.83a45.26,45.26,0,0,1,19.49-3.38c9.81.46,18.93,3.69,28,7,4.49,1.62,8.6,4.31,13.06,6.61.3-6.4-.34-7.35-5.61-8.83-2.73-.76-3.21-1.34-3.22-4.08H90.94c.44,2.51.13,3.5-2.67,3.86-4.84.63-6.1,3.65-6.28,7.82a33.46,33.46,0,0,1-.41,3.86c-.66,4,1.13,6.61,3.82,9.47C91.5,49.1,97.09,56.1,102.83,63c7.06,8.45,14,17,21.11,25.39C126.82,91.75,130,94.91,133.69,99Z" transform="translate(-2 -16.88)"/><path d="M207.79,66.33A32.25,32.25,0,0,0,212,65c3.08-1.61,6.58-2.94,9-5.06,6.71-5.86,7.48-13.24,6.53-20.74-1.17-9.23-7.21-16-17.84-19.21a74.74,74.74,0,0,0-18.12-2.84C181.27,16.67,171,17,160.65,17H146.88c-.87,2.86.35,3.94,3.55,4.23,8.19.75,9.6,2,10.25,8.56.22,2.22.33,4.46.33,6.69q0,32.62,0,65.26a39.37,39.37,0,0,1-.46,7,18.79,18.79,0,0,1-.83,3.17c4.05,2.32,7.55,5.51,11.16,8.48l27.1,0c9.68,0,18.82-2,25.43-7.77C238.85,99.12,236.49,72.5,207.79,66.33ZM176.36,26.65c0-2.17,1.4-3.78,4.69-3.43,5.06.55,10.22.67,15.17,1.58,8.78,1.62,13.54,6.59,15.14,13.57,1.37,6,1.22,11.84-2.64,17.37-3.42,4.9-9.08,7-15.34,7.71-5.38.61-11,.13-17.08.13C176.3,51,176.24,38.83,176.36,26.65Zm36.49,77c-2.34,5.43-8,8-13.95,9.29-5.46,1.18-11.45.86-17.21,1-3.62.1-5.31-1.94-5.33-4.52-.13-13.26-.06-26.53-.06-40.28,10.31.19,19.71,1.08,28.63,4.51,4.53,1.74,6.57,4.89,8.07,8.26C216.2,89.1,216,96.39,212.85,103.64Z" transform="translate(-2 -16.88)"/></svg>